<?xml version="1.0" encoding="utf-8"?>
<!-- Generator: Adobe Illustrator 16.0.0, SVG Export Plug-In . SVG Version: 6.00 Build 0)  -->
<!DOCTYPE svg PUBLIC "-//W3C//DTD SVG 1.1//EN" "http://www.w3.org/Graphics/SVG/1.1/DTD/svg11.dtd">
<svg version="1.1" xmlns="http://www.w3.org/2000/svg" xmlns:xlink="http://www.w3.org/1999/xlink" x="0px" y="0px"
	 width="759.686px" height="283.465px" viewBox="0 0 759.686 283.465" enable-background="new 0 0 759.686 283.465"
	 xml:space="preserve">
<g id="Layer_22">
	<rect fill="#FFFFFF" width="759.686" height="283.465"/>
</g>
<g id="Blocks">
	<rect x="100.587" y="214.223" fill="#FFFD6B" stroke="#385D8A" stroke-miterlimit="10" width="131" height="50"/>
	<rect x="13.252" y="214.223" fill="#CDCDCD" stroke="#385D8A" stroke-miterlimit="10" width="83.348" height="50"/>
	<rect x="234.587" y="214.223" fill="#248226" stroke="#385D8A" stroke-miterlimit="10" width="82" height="50"/>
	<rect x="319.087" y="214.223" fill="#237C82" stroke="#385D8A" stroke-miterlimit="10" width="50.998" height="50"/>
	<rect x="372.837" y="214.223" fill="#E38233" stroke="#385D8A" stroke-miterlimit="10" width="51.998" height="50"/>
	<rect x="428.088" y="214.223" fill="#30DF34" stroke="#385D8A" stroke-miterlimit="10" width="127.006" height="50"/>
	<rect x="555.588" y="214.223" fill="#2079DA" stroke="#385D8A" stroke-miterlimit="10" width="131.006" height="50"/>
	
		<rect x="398.836" y="214.223" fill="#BF48CB" stroke="#385D8A" stroke-width="0.5" stroke-miterlimit="10" width="25.999" height="40.334"/>
</g>
<g id="TXT">
	<g id="startTime">
		<text transform="matrix(1 0 0 1 194.3247 32.5898)" font-family="'ArialMT'" font-size="8.9989">startTime</text>
		<g>
			<g>
				<g>
					<polygon fill="#202020" points="194.049,34.937 18.387,206.294 16.367,204.224 14.586,210.556 20.96,208.933 18.94,206.862 
						194.603,35.505 					"/>
				</g>
			</g>
		</g>
		<g>
			<g>
				<g>
					<polygon fill="#202020" points="214.995,46.999 107.782,205.614 105.386,203.995 104.921,210.556 110.835,207.678 
						108.439,206.059 215.652,47.443 					"/>
				</g>
			</g>
		</g>
		<g>
			<g>
				<g>
					<polygon fill="#202020" points="278.687,57.104 232.894,204.997 230.131,204.142 231.587,210.556 236.414,206.087 
						233.651,205.231 279.444,57.338 					"/>
				</g>
			</g>
		</g>
		<g>
			<g>
				<g>
					<polygon fill="#202020" points="327.482,77.665 240.463,205.622 238.071,203.996 237.587,210.556 243.51,207.694 
						241.119,206.068 328.138,78.111 					"/>
				</g>
			</g>
		</g>
		<g>
			<g>
				<g>
					<polygon fill="#202020" points="361.929,91.277 323.693,205.03 320.952,204.108 322.254,210.556 327.186,206.204 
						324.445,205.283 362.681,91.53 					"/>
				</g>
			</g>
		</g>
		<g>
			<g>
				<g>
					<polygon fill="#202020" points="403.921,101.103 371.408,205.001 368.647,204.138 370.085,210.556 374.925,206.102 
						372.165,205.238 404.678,101.339 					"/>
				</g>
			</g>
		</g>
		<g>
			<g>
				<g>
					<polygon fill="#202020" points="420.44,117.05 378.35,205.244 375.739,203.998 376.254,210.556 381.675,206.831 
						379.065,205.586 421.156,117.392 					"/>
				</g>
			</g>
		</g>
		<g>
			<g>
				<g>
					<polygon fill="#202020" points="443.23,128.716 406.412,205.251 403.806,203.997 404.3,210.556 409.732,206.849 
						407.126,205.595 443.945,129.06 					"/>
				</g>
			</g>
		</g>
		<g>
			<g>
				<g>
					<polygon fill="#202020" points="459.901,139.041 426.174,205.3 423.597,203.987 423.944,210.556 429.459,206.971 
						426.881,205.659 460.608,139.401 					"/>
				</g>
			</g>
		</g>
		<g>
			<g>
				<g>
					<polygon fill="#202020" points="494.662,155.587 435.641,206.533 433.751,204.345 431.588,210.556 438.049,209.323 
						436.159,207.134 495.18,156.188 					"/>
				</g>
			</g>
		</g>
		<g>
			<g>
				<g>
					<polygon fill="#202020" points="574.17,169.554 557.625,205.222 555.002,204.005 555.588,210.556 560.968,206.772 
						558.345,205.556 574.89,169.888 					"/>
				</g>
			</g>
		</g>
		<g>
			<g>
				<g>
					<polygon fill="#202020" points="691.122,178.495 687.067,204.865 684.209,204.426 686.594,210.556 690.71,205.426 
						687.852,204.986 691.906,178.615 					"/>
				</g>
			</g>
		</g>
	</g>
	<g id="redirectStart">
		<text transform="matrix(1 0 0 1 215.3218 41.5894)" font-family="'ArialMT'" font-size="8.9989">redirectStart</text>
	</g>
	<g id="redirectEnd">
		<text transform="matrix(1 0 0 1 279.064 52.8379)" font-family="'ArialMT'" font-size="8.9989">redirectEnd</text>
	</g>
	<g id="fetchStart">
		<text transform="matrix(1 0 0 1 327.8081 73.0854)" font-family="'ArialMT'" font-size="8.9989">fetchStart</text>
	</g>
	<g id="domainLookupStart">
		<text transform="matrix(1 0 0 1 362.3037 88.0835)" font-family="'ArialMT'" font-size="8.9989">domainLookupStart</text>
	</g>
	<g id="domainLookupEnd">
		<text transform="matrix(1 0 0 1 404.2983 98.5815)" font-family="'ArialMT'" font-size="8.9989">domainLookupEnd</text>
	</g>
	<g id="connectStart">
		<text transform="matrix(1 0 0 1 420.7969 114.3296)" font-family="'ArialMT'" font-size="8.9989">connectStart</text>
	</g>
	<g id="connectEnd">
		<text transform="matrix(1 0 0 1 456.792 135.3276)" font-family="'ArialMT'" font-size="8.9989">connectEnd</text>
	</g>
	<g id="_x28_secureConnectionStart_x29_">
		<text transform="matrix(1 0 0 1 440.2939 124.0791)" font-family="'ArialMT'" font-size="8.9989">(secureConnectionStart)</text>
	</g>
	<g id="requestStart">
		<text transform="matrix(1 0 0 1 492.0371 154.0752)" font-family="'ArialMT'" font-size="8.9989">requestStart</text>
	</g>
	<g id="responseStart">
		<text transform="matrix(1 0 0 1 574.5273 163.8242)" font-family="'ArialMT'" font-size="8.9989">responseStart</text>
	</g>
	<g id="responseEnd">
		<text transform="matrix(1 0 0 1 691.5117 172.0732)" font-family="'ArialMT'" font-size="8.9989">responseEnd</text>
	</g>
	<g id="Redirect">
		<text transform="matrix(1 0 0 1 146.5386 242.6055)" font-family="'ArialMT'" font-size="8.9989">Redirect</text>
		<text transform="matrix(1 0 0 1 18.5859 243.249)" font-family="'Arial-ItalicMT'" font-size="8.9989">(Stalled/Blocking)</text>
	</g>
	<g id="App_cache">
		<text transform="matrix(1 0 0 1 252.2754 242.6055)" fill="#FFFFFF" font-family="'ArialMT'" font-size="8.9989">App cache</text>
	</g>
	<g id="DNS">
		<text transform="matrix(1 0 0 1 335.5151 242.6055)" fill="#FFFFFF" font-family="'ArialMT'" font-size="8.9989">DNS</text>
	</g>
	<g id="TCP">
		<text transform="matrix(1 0 0 1 388.7583 242.6055)" font-family="'ArialMT'" font-size="8.9989">TCP</text>
	</g>
	<g id="Request">
		<text transform="matrix(1 0 0 1 469.6895 239.2217)"><tspan x="0" y="0" font-family="'ArialMT'" font-size="12">Request</tspan><tspan x="-12.986" y="9.6" font-family="'ArialMT'" font-size="8">(Time To First Byte)</tspan></text>
	</g>
	<g id="Response">
		<text transform="matrix(1 0 0 1 599.0479 239.2217)"><tspan x="0" y="0" fill="#FFFFFF" font-family="'ArialMT'" font-size="12">Response</tspan><tspan x="-8.557" y="9.6" fill="#FFFFFF" font-family="'ArialMT'" font-size="8">(Content Download)</tspan></text>
	</g>
</g>
<g id="_x3C_Type_x3E_">
</g>
</svg>
