<?xml version="1.0" encoding="utf-8"?>
<!-- Generator: Adobe Illustrator 16.0.0, SVG Export Plug-In . SVG Version: 6.00 Build 0)  -->
<!DOCTYPE svg PUBLIC "-//W3C//DTD SVG 1.1//EN" "http://www.w3.org/Graphics/SVG/1.1/DTD/svg11.dtd">
<svg version="1.1" xmlns="http://www.w3.org/2000/svg" xmlns:xlink="http://www.w3.org/1999/xlink" x="0px" y="0px"
	 width="759.686px" height="368.504px" viewBox="0 0 759.686 368.504" enable-background="new 0 0 759.686 368.504"
	 xml:space="preserve">
<g id="Layer_2">
	<rect x="98.587" y="210.557" fill="#8CD18C" width="456.507" height="118.627"/>
	<text transform="matrix(1 0 0 1 104.9211 321.9131)" opacity="0.5" font-family="'MyriadPro-Regular'" font-size="15.4201">Network / Server</text>
</g>
<g id="Layer_1">
	<g id="Blocks">
		<rect x="100.587" y="214.223" fill="#FFFD6B" stroke="#385D8A" stroke-miterlimit="10" width="131" height="50"/>
		<rect x="13.252" y="214.223" fill="#CDCDCD" stroke="#385D8A" stroke-miterlimit="10" width="83.348" height="50"/>
		<rect x="234.587" y="214.223" fill="#248226" stroke="#385D8A" stroke-miterlimit="10" width="82" height="50"/>
		<rect x="319.087" y="214.223" fill="#237C82" stroke="#385D8A" stroke-miterlimit="10" width="50.998" height="50"/>
		<rect x="372.837" y="214.223" fill="#E38233" stroke="#385D8A" stroke-miterlimit="10" width="51.998" height="50"/>
		<rect x="428.088" y="214.223" fill="#30DF34" stroke="#385D8A" stroke-miterlimit="10" width="127.006" height="50"/>
		<rect x="555.588" y="214.223" fill="#2079DA" stroke="#385D8A" stroke-miterlimit="10" width="131.006" height="50"/>
		
			<rect x="398.836" y="214.223" fill="#BF48CB" stroke="#385D8A" stroke-width="0.5" stroke-miterlimit="10" width="25.999" height="40.334"/>
	</g>
	<g id="TXT">
		<g id="startTime">
			<text transform="matrix(1 0 0 1 194.3245 32.5898)" font-family="'ArialMT'" font-size="8.9989">startTime</text>
			<g>
				<g>
					<g>
						<polygon fill="#202020" points="194.049,34.937 18.387,206.294 16.367,204.225 14.586,210.557 20.96,208.934 18.94,206.861 
							194.603,35.505 						"/>
					</g>
				</g>
			</g>
			<g>
				<g>
					<g>
						<polygon fill="#202020" points="214.995,46.999 107.782,205.614 105.386,203.995 104.921,210.557 110.835,207.678 
							108.439,206.059 215.652,47.443 						"/>
					</g>
				</g>
			</g>
			<g>
				<g>
					<g>
						<polygon fill="#202020" points="278.687,57.104 232.894,204.997 230.131,204.143 231.587,210.557 236.414,206.087 
							233.651,205.23 279.444,57.338 						"/>
					</g>
				</g>
			</g>
			<g>
				<g>
					<g>
						<polygon fill="#202020" points="327.482,77.665 240.463,205.622 238.071,203.996 237.587,210.557 243.51,207.693 
							241.119,206.068 328.138,78.111 						"/>
					</g>
				</g>
			</g>
			<g>
				<g>
					<g>
						<polygon fill="#202020" points="361.929,91.277 323.693,205.03 320.951,204.107 322.254,210.557 327.186,206.204 
							324.445,205.283 362.681,91.53 						"/>
					</g>
				</g>
			</g>
			<g>
				<g>
					<g>
						<polygon fill="#202020" points="403.921,101.103 371.407,205.001 368.647,204.139 370.085,210.557 374.925,206.102 
							372.164,205.238 404.678,101.339 						"/>
					</g>
				</g>
			</g>
			<g>
				<g>
					<g>
						<polygon fill="#202020" points="420.44,117.05 378.35,205.244 375.739,203.998 376.254,210.557 381.675,206.831 
							379.065,205.586 421.156,117.392 						"/>
					</g>
				</g>
			</g>
			<g>
				<g>
					<g>
						<polygon fill="#202020" points="443.23,128.716 406.411,205.251 403.806,203.997 404.3,210.557 409.732,206.85 
							407.126,205.595 443.945,129.06 						"/>
					</g>
				</g>
			</g>
			<g>
				<g>
					<g>
						<polygon fill="#202020" points="459.901,139.041 426.174,205.3 423.597,203.986 423.944,210.557 429.459,206.971 
							426.881,205.659 460.608,139.401 						"/>
					</g>
				</g>
			</g>
			<g>
				<g>
					<g>
						<polygon fill="#202020" points="494.661,155.587 435.641,206.533 433.751,204.345 431.588,210.557 438.049,209.323 
							436.158,207.134 495.18,156.188 						"/>
					</g>
				</g>
			</g>
			<g>
				<g>
					<g>
						<polygon fill="#202020" points="574.17,169.555 557.625,205.223 555.002,204.005 555.588,210.557 560.968,206.771 
							558.345,205.557 574.89,169.889 						"/>
					</g>
				</g>
			</g>
			<g>
				<g>
					<g>
						<polygon fill="#202020" points="691.121,178.495 687.067,204.865 684.209,204.426 686.594,210.557 690.71,205.426 
							687.852,204.986 691.906,178.615 						"/>
					</g>
				</g>
			</g>
		</g>
		<g id="redirectStart">
			<text transform="matrix(1 0 0 1 215.3215 41.5898)" font-family="'ArialMT'" font-size="8.9989">redirectStart</text>
		</g>
		<g id="redirectEnd">
			<text transform="matrix(1 0 0 1 279.0637 52.8379)" font-family="'ArialMT'" font-size="8.9989">redirectEnd</text>
		</g>
		<g id="fetchStart">
			<text transform="matrix(1 0 0 1 327.8079 73.085)" font-family="'ArialMT'" font-size="8.9989">fetchStart</text>
		</g>
		<g id="domainLookupStart">
			<text transform="matrix(1 0 0 1 362.3035 88.084)" font-family="'ArialMT'" font-size="8.9989">domainLookupStart</text>
		</g>
		<g id="domainLookupEnd">
			<text transform="matrix(1 0 0 1 404.2981 98.5811)" font-family="'ArialMT'" font-size="8.9989">domainLookupEnd</text>
		</g>
		<g id="connectStart">
			<text transform="matrix(1 0 0 1 420.7961 114.3301)" font-family="'ArialMT'" font-size="8.9989">connectStart</text>
		</g>
		<g id="connectEnd">
			<text transform="matrix(1 0 0 1 456.7922 135.3281)" font-family="'ArialMT'" font-size="8.9989">connectEnd</text>
		</g>
		<g id="_x28_secureConnectionStart_x29_">
			<text transform="matrix(1 0 0 1 440.2942 124.0791)" font-family="'ArialMT'" font-size="8.9989">(secureConnectionStart)</text>
		</g>
		<g id="requestStart">
			<text transform="matrix(1 0 0 1 492.0364 154.0752)" font-family="'ArialMT'" font-size="8.9989">requestStart</text>
		</g>
		<g id="responseStart">
			<text transform="matrix(1 0 0 1 574.5266 163.8242)" font-family="'ArialMT'" font-size="8.9989">responseStart</text>
		</g>
		<g id="responseEnd">
			<text transform="matrix(1 0 0 1 691.511 172.0732)" font-family="'ArialMT'" font-size="8.9989">responseEnd</text>
		</g>
		<g id="Redirect">
			<text transform="matrix(1 0 0 1 146.5383 242.6055)" font-family="'ArialMT'" font-size="8.9989">Redirect</text>
			<text transform="matrix(1 0 0 1 18.5857 243.249)" font-family="'Arial-ItalicMT'" font-size="8.9989">(Stalled/Blocking)</text>
		</g>
		<g id="App_cache">
			<text transform="matrix(1 0 0 1 252.2751 242.6055)" fill="#FFFFFF" font-family="'ArialMT'" font-size="8.9989">App cache</text>
		</g>
		<g id="DNS">
			<text transform="matrix(1 0 0 1 335.5149 242.6055)" fill="#FFFFFF" font-family="'ArialMT'" font-size="8.9989">DNS</text>
		</g>
		<g id="TCP">
			<text transform="matrix(1 0 0 1 388.7581 242.6055)" font-family="'ArialMT'" font-size="8.9989">TCP</text>
		</g>
		<g id="Request">
			<text transform="matrix(1 0 0 1 469.6887 239.2217)" font-family="'ArialMT'" font-size="12">Request</text>
			<text transform="matrix(1 0 0 1 456.7034 248.8213)" font-family="'ArialMT'" font-size="8">(Time To First Byte)</text>
		</g>
		<g id="Response">
			<text transform="matrix(1 0 0 1 599.0481 239.2217)" fill="#FFFFFF" font-family="'ArialMT'" font-size="12">Response</text>
			<text transform="matrix(1 0 0 1 590.4905 248.8213)" fill="#FFFFFF" font-family="'ArialMT'" font-size="8">(Content Download)</text>
		</g>
	</g>
	<g id="_x3C_Type_x3E_">
	</g>
</g>
</svg>
